<mxfile host="localhost" modified="2020-05-17T02:46:11.016Z" agent="5.0 (Macintosh; Intel Mac OS X 10_14_5) AppleWebKit/537.36 (KHTML, like Gecko) Code/1.45.1 Chrome/78.0.3904.130 Electron/7.2.4 Safari/537.36" etag="otoCeYRUHkuPhn-vEh4g" version="13.0.9">
    <diagram id="nHK__6kIETEqpyNOXMgD" name="lifecycle">
        <mxGraphModel dx="1283" dy="971" grid="1" gridSize="10" guides="1" tooltips="1" connect="1" arrows="1" fold="1" page="1" pageScale="1" pageWidth="827" pageHeight="1169" background="none" math="0" shadow="0">
            <root>
                <mxCell id="0"/>
                <mxCell id="1" parent="0"/>
                <mxCell id="9xxScpKLfCjtvtaMocXW-2" style="edgeStyle=orthogonalEdgeStyle;rounded=0;orthogonalLoop=1;jettySize=auto;html=1;exitX=1;exitY=0.5;exitDx=0;exitDy=0;entryX=0;entryY=0.5;entryDx=0;entryDy=0;shape=flexArrow;fillColor=#d5e8d4;strokeColor=#82b366;" edge="1" parent="1" source="-QI71FsrUNevj5qXHAwb-1" target="-QI71FsrUNevj5qXHAwb-4">
                    <mxGeometry relative="1" as="geometry"/>
                </mxCell>
                <mxCell id="-QI71FsrUNevj5qXHAwb-1" value="&lt;font color=&quot;#ff9933&quot;&gt;&lt;span style=&quot;font-size: 24px&quot;&gt;创建变量对象&lt;br&gt;&lt;br&gt;创建作用域链&lt;br&gt;&lt;br&gt;确定this指向&lt;br&gt;&lt;/span&gt;&lt;/font&gt;" style="rounded=1;whiteSpace=wrap;html=1;strokeWidth=5;strokeColor=#FF9933;" parent="1" vertex="1">
                    <mxGeometry x="191" y="320" width="300" height="320" as="geometry"/>
                </mxCell>
                <mxCell id="-QI71FsrUNevj5qXHAwb-3" value="&lt;font style=&quot;font-size: 36px&quot;&gt;Execution Context Lifecycle&lt;/font&gt;" style="text;html=1;strokeColor=none;fillColor=none;align=center;verticalAlign=middle;whiteSpace=wrap;rounded=0;" parent="1" vertex="1">
                    <mxGeometry x="470" y="90" width="600" height="50" as="geometry"/>
                </mxCell>
                <mxCell id="9xxScpKLfCjtvtaMocXW-3" style="edgeStyle=orthogonalEdgeStyle;shape=flexArrow;rounded=0;orthogonalLoop=1;jettySize=auto;html=1;exitX=1;exitY=0.5;exitDx=0;exitDy=0;entryX=0;entryY=0.5;entryDx=0;entryDy=0;fillColor=#d5e8d4;strokeColor=#82b366;" edge="1" parent="1" source="-QI71FsrUNevj5qXHAwb-4" target="-QI71FsrUNevj5qXHAwb-5">
                    <mxGeometry relative="1" as="geometry"/>
                </mxCell>
                <mxCell id="-QI71FsrUNevj5qXHAwb-4" value="&lt;font color=&quot;#00cc00&quot; style=&quot;font-size: 24px&quot;&gt;变量赋值&lt;br&gt;&lt;br&gt;函数引用&lt;br&gt;&lt;br&gt;执行其他代码&lt;br&gt;&lt;/font&gt;" style="rounded=1;whiteSpace=wrap;html=1;strokeWidth=5;strokeColor=#00CC00;" parent="1" vertex="1">
                    <mxGeometry x="580" y="320" width="300" height="320" as="geometry"/>
                </mxCell>
                <mxCell id="-QI71FsrUNevj5qXHAwb-5" value="&lt;font color=&quot;#007fff&quot; style=&quot;font-size: 24px&quot;&gt;执行完毕出栈&lt;br&gt;&lt;br&gt;等待被虚拟机回收&lt;br&gt;&lt;/font&gt;" style="rounded=1;whiteSpace=wrap;html=1;strokeWidth=5;strokeColor=#007FFF;" parent="1" vertex="1">
                    <mxGeometry x="980" y="320" width="300" height="320" as="geometry"/>
                </mxCell>
                <mxCell id="-QI71FsrUNevj5qXHAwb-6" value="&lt;font style=&quot;font-size: 24px&quot;&gt;创建阶段&lt;/font&gt;" style="whiteSpace=wrap;html=1;rounded=1;arcSize=50;align=center;verticalAlign=middle;strokeWidth=1;autosize=1;spacing=4;treeFolding=1;treeMoving=1;newEdgeStyle={&quot;edgeStyle&quot;:&quot;entityRelationEdgeStyle&quot;,&quot;startArrow&quot;:&quot;none&quot;,&quot;endArrow&quot;:&quot;none&quot;,&quot;segment&quot;:10,&quot;curved&quot;:1};fillColor=#FF9933;strokeColor=#d79b00;" parent="1" vertex="1">
                    <mxGeometry x="390" y="215" width="140" height="30" as="geometry"/>
                </mxCell>
                <mxCell id="-QI71FsrUNevj5qXHAwb-7" value="" style="edgeStyle=entityRelationEdgeStyle;startArrow=none;endArrow=none;segment=10;curved=1;exitX=0.5;exitY=0;exitDx=0;exitDy=0;" parent="1" target="-QI71FsrUNevj5qXHAwb-6" edge="1" source="-QI71FsrUNevj5qXHAwb-1">
                    <mxGeometry relative="1" as="geometry">
                        <mxPoint x="490" y="370" as="sourcePoint"/>
                    </mxGeometry>
                </mxCell>
                <mxCell id="-QI71FsrUNevj5qXHAwb-8" value="&lt;font style=&quot;font-size: 24px&quot;&gt;执行阶段&lt;/font&gt;" style="whiteSpace=wrap;html=1;rounded=1;arcSize=50;align=center;verticalAlign=middle;strokeWidth=1;autosize=1;spacing=4;treeFolding=1;treeMoving=1;newEdgeStyle={&quot;edgeStyle&quot;:&quot;entityRelationEdgeStyle&quot;,&quot;startArrow&quot;:&quot;none&quot;,&quot;endArrow&quot;:&quot;none&quot;,&quot;segment&quot;:10,&quot;curved&quot;:1};fillColor=#FF9933;strokeColor=#d79b00;" parent="1" vertex="1">
                    <mxGeometry x="770" y="225" width="140" height="30" as="geometry"/>
                </mxCell>
                <mxCell id="-QI71FsrUNevj5qXHAwb-9" value="" style="edgeStyle=entityRelationEdgeStyle;startArrow=none;endArrow=none;segment=10;curved=1;exitX=0.5;exitY=0;exitDx=0;exitDy=0;" parent="1" target="-QI71FsrUNevj5qXHAwb-8" edge="1" source="-QI71FsrUNevj5qXHAwb-4">
                    <mxGeometry relative="1" as="geometry">
                        <mxPoint x="880" y="365" as="sourcePoint"/>
                    </mxGeometry>
                </mxCell>
                <mxCell id="-QI71FsrUNevj5qXHAwb-10" value="&lt;font style=&quot;font-size: 24px&quot;&gt;回收阶段&lt;/font&gt;" style="whiteSpace=wrap;html=1;rounded=1;arcSize=50;align=center;verticalAlign=middle;strokeWidth=1;autosize=1;spacing=4;treeFolding=1;treeMoving=1;newEdgeStyle={&quot;edgeStyle&quot;:&quot;entityRelationEdgeStyle&quot;,&quot;startArrow&quot;:&quot;none&quot;,&quot;endArrow&quot;:&quot;none&quot;,&quot;segment&quot;:10,&quot;curved&quot;:1};fillColor=#FF9933;strokeColor=#d79b00;" parent="1" vertex="1">
                    <mxGeometry x="1190" y="230" width="140" height="30" as="geometry"/>
                </mxCell>
                <mxCell id="-QI71FsrUNevj5qXHAwb-11" value="" style="edgeStyle=entityRelationEdgeStyle;startArrow=none;endArrow=none;segment=10;curved=1;exitX=0.5;exitY=0;exitDx=0;exitDy=0;" parent="1" target="-QI71FsrUNevj5qXHAwb-10" edge="1" source="-QI71FsrUNevj5qXHAwb-5">
                    <mxGeometry relative="1" as="geometry">
                        <mxPoint x="1280" y="370" as="sourcePoint"/>
                    </mxGeometry>
                </mxCell>
                <mxCell id="9xxScpKLfCjtvtaMocXW-4" value="" style="shape=flexArrow;endArrow=classic;html=1;strokeWidth=3;startSize=14;width=61.42857142857143;endSize=23.38571428571429;fillColor=#f8cecc;strokeColor=#b85450;" edge="1" parent="1">
                    <mxGeometry width="50" height="50" relative="1" as="geometry">
                        <mxPoint x="140" y="760" as="sourcePoint"/>
                        <mxPoint x="1320" y="760" as="targetPoint"/>
                    </mxGeometry>
                </mxCell>
                <mxCell id="9xxScpKLfCjtvtaMocXW-5" value="&lt;font style=&quot;font-size: 24px&quot; color=&quot;#ffffff&quot;&gt;执行上下文生命周期&lt;/font&gt;" style="edgeLabel;html=1;align=left;verticalAlign=middle;resizable=0;points=[];labelBackgroundColor=none;" vertex="1" connectable="0" parent="9xxScpKLfCjtvtaMocXW-4">
                    <mxGeometry x="-0.0235" y="-5" relative="1" as="geometry">
                        <mxPoint x="-95.71" y="-5" as="offset"/>
                    </mxGeometry>
                </mxCell>
            </root>
        </mxGraphModel>
    </diagram>
</mxfile>